<svg width="49" height="41" viewBox="0 0 49 41" fill="none" xmlns="http://www.w3.org/2000/svg">
    <path d="M14.3812 38.9773L26.1937 40.9141L48.0891 38.1922L47.625 32.9578L46.4437 33.1148V32.0156C46.4437 27.0953 43.2375 23.1172 39.2719 23.1172H30.1594C27.375 23.1172 25.0125 20.5 24.7172 17.0453L23.4937 3.2789C23.4094 2.28437 22.9875 1.34218 22.3125 0.714057C21.6375 0.0859317 20.7937 -0.123444 19.9922 0.0859313L1.76718 4.9539V33.5859H0.0796814V40.9141H14.4234V38.9773H14.3812ZM17.3344 2.96484V5.47734C17.3344 7.4664 16.1953 9.1414 14.5078 9.61249L3.41249 12.3344V6.68124L17.3344 2.96484ZM3.41249 19.9766H6.78749V17.8828H3.41249V14.4805L14.8453 11.6539C17.2922 10.9734 19.0219 8.40859 19.0219 5.47734V2.54609L20.3297 2.17968C20.6672 2.07499 21.0469 2.17968 21.3422 2.4414C21.6375 2.70312 21.8062 3.06953 21.8484 3.54062L23.0719 17.307C23.4937 21.8086 26.5312 25.2109 30.2016 25.2109H39.3141C42.3516 25.2109 44.7984 28.2469 44.7984 32.0156V33.3242L26.2359 35.6797L13.6641 33.5859H3.41249V19.9766ZM12.6937 38.8203H1.72499V35.6797H13.4531L26.1516 37.7734L46.1062 35.2609L46.1906 36.3602L26.1937 38.8203L12.6937 36.5695V38.8203Z" fill="#2BAEDA" />
    <path d="M20.5038 17.1257L20.038 11.9232L18.3608 12.1544L18.8266 17.3568L20.5038 17.1257Z" fill="#2BAEDA" />
</svg>
    