<svg width="38" height="48" viewBox="0 0 38 48" fill="none" xmlns="http://www.w3.org/2000/svg">
    <path d="M33.4125 18.075C32.4375 18.075 31.5 18.45 30.825 19.1625L26.6625 23.325V8.0625C26.6625 5.8875 24.9 4.125 22.725 4.125C21.7875 4.125 20.9625 4.4625 20.2875 4.9875V4.6875C20.2875 2.5125 18.525 0.75 16.35 0.75H15.975C13.8 0.75 12.0375 2.5125 12.0375 4.6875V5.7375C11.3625 5.2125 10.5375 4.875 9.60001 4.875C7.42501 4.875 5.66251 6.6375 5.66251 8.8125V13.3125C5.13751 12.9375 4.46251 12.75 3.78751 12.75C1.91251 12.75 0.412506 14.25 0.412506 16.125V32.7375L3.03751 40.2375V47.25H25.5375V40.35L36.4875 23.775C37.425 22.3125 37.2375 20.4 36.0375 19.1625C35.325 18.45 34.3875 18.075 33.4125 18.075ZM35.2125 22.95L24.0375 39.9V45.75H4.53751V40.0125L1.91251 32.5125V16.125C1.91251 15.075 2.73751 14.25 3.78751 14.25C4.83751 14.25 5.66251 15.075 5.66251 16.125V23.25H7.16251V8.8125C7.16251 7.4625 8.25001 6.375 9.60001 6.375C10.95 6.375 12.0375 7.4625 12.0375 8.8125V21.375H13.5375V4.6875C13.5375 3.3375 14.625 2.25 15.975 2.25H16.35C17.7 2.25 18.7875 3.3375 18.7875 4.6875V21.375H20.2875V8.0625C20.2875 6.7125 21.375 5.625 22.725 5.625C24.075 5.625 25.1625 6.7125 25.1625 8.0625V24.825L23.1375 26.85C22.6125 27.375 21.7125 27.375 21.1875 26.85L20.1375 27.9C20.6625 28.425 21.4125 28.725 22.1625 28.725C22.9125 28.725 23.6625 28.425 24.1875 27.9L31.875 20.2125C32.2875 19.8 32.8125 19.575 33.4125 19.575C34.0125 19.575 34.5375 19.8 34.95 20.2125C35.6625 20.925 35.8125 22.0875 35.2125 22.95Z" fill="#2BAEDA" />
</svg>
    