<svg width="82" height="56" viewBox="0 0 82 56" fill="none" xmlns="http://www.w3.org/2000/svg">
    <path d="M81.9116 31.7253C81.3441 27.676 73.2399 25.8568 61.5097 26.4569C62.5581 30.1332 63.463 34.3338 63.5009 34.5203C63.7098 35.4745 63.2816 36.4612 62.537 36.7423C55.8671 39.3049 48.0899 41.5917 40.051 43.3298C32.3708 44.9977 24.7201 46.1113 17.9469 46.5574C17.9174 46.5574 17.8942 46.5574 17.8646 46.5574C17.5187 46.5574 17.177 46.3871 16.9175 46.0843C16.637 45.7626 16.4767 45.3112 16.4556 44.8328C16.4513 44.6354 16.291 40.4753 16.2531 37.1126C6.08165 41.562 -0.284441 46.5168 0.25134 50.3606C1.12884 56.6373 20.1132 57.5726 42.6582 52.4285C65.2138 47.2899 82.7891 38.0209 81.9116 31.7253Z" fill="#2BAEDA" />
    <path d="M19.0691 36.007C19.0775 38.1398 19.1598 40.997 19.2209 42.827C25.5364 42.3405 32.5395 41.289 39.5848 39.7428C46.9761 38.1479 54.1311 36.0854 60.3833 33.7716C59.9741 31.9929 59.2906 29.1627 58.5903 26.8137C58.5734 26.757 58.5777 26.6948 58.565 26.6353C58.5439 26.6407 58.5207 26.6407 58.4996 26.6407C56.6708 20.1613 53.6923 10.7355 50.9059 6.98629C50.9059 6.98629 49.0074 3.3641 43.8163 2.50181C43.8163 2.50181 43.3332 2.39098 42.2996 2.39638C40.2198 2.68021 35.8597 4.51293 31.8877 6.80248C31.6979 6.91331 31.4996 6.96196 31.3077 6.96196C30.7677 6.96196 30.253 6.56731 30.0188 5.88882C29.694 4.97787 30.0146 3.90473 30.7318 3.49385C32.5332 2.45315 34.6953 1.35839 36.752 0.474464C30.1813 -1.21769 26.222 2.50451 26.222 2.50451C21.6277 5.71853 20.8831 9.98136 20.8831 9.98136C19.2188 15.1768 18.9995 28.0815 19.029 35.7584C19.0438 35.8367 19.0691 35.9124 19.0691 36.007Z" fill="#2BAEDA" />
</svg>