<svg width="40" height="45" viewBox="0 0 40 45" fill="none" xmlns="http://www.w3.org/2000/svg">
    <g clip-path="url(#clip0_220_500)">
        <path d="M19.9998 11.8234L5.73401 25.0541C5.73401 25.0728 5.72984 25.1003 5.7215 25.1377C5.71333 25.1749 5.70898 25.2018 5.70898 25.221V38.6185C5.70898 39.1023 5.86619 39.5215 6.18051 39.8745C6.49474 40.2277 6.86684 40.4054 7.29691 40.4054H16.8238V29.6871H23.1759V40.4058H32.7027C33.1327 40.4058 33.5053 40.2285 33.8191 39.8745C34.1334 39.5219 34.2912 39.1024 34.2912 38.6185V25.221C34.2912 25.1467 34.2821 25.0906 34.2661 25.0541L19.9998 11.8234Z" fill="#DCEEF4" />
        <path d="M39.724 22.0395L34.2909 16.9595V5.57141C34.2909 5.31107 34.2165 5.09697 34.0672 4.9294C33.9191 4.76203 33.7288 4.67835 33.4969 4.67835H28.7333C28.5017 4.67835 28.3114 4.76203 28.1624 4.9294C28.0137 5.09697 27.9394 5.31117 27.9394 5.57141V11.0142L21.8858 5.31996C21.3571 4.83613 20.7284 4.59427 20.0006 4.59427C19.2728 4.59427 18.6442 4.83613 18.115 5.31996L0.275696 22.0395C0.110325 22.1881 0.0196879 22.3881 0.00282925 22.6394C-0.0139425 22.8904 0.0438462 23.1097 0.176369 23.2957L1.71459 25.3612C1.84711 25.5286 2.02057 25.6309 2.23564 25.6684C2.43421 25.6871 2.63278 25.6218 2.83134 25.473L20 9.36735L37.1689 25.4729C37.3015 25.6028 37.4749 25.6676 37.69 25.6676H37.7645C37.9793 25.6308 38.1524 25.5278 38.2856 25.3608L39.824 23.2956C39.9562 23.1092 40.0142 22.8903 39.997 22.639C39.9801 22.3884 39.8891 22.1884 39.724 22.0395Z" fill="#DCEEF4" />
    </g>
    <defs>
        <clipPath id="clip0_220_500">
            <rect width="40" height="45" fill="white" />
        </clipPath>
    </defs>
</svg>
    