<svg width="24" height="50" viewBox="0 0 24 50" fill="none" xmlns="http://www.w3.org/2000/svg">
    <path d="M12.2992 16.9906C12.2992 16.9906 14.9936 18.8675 18.4001 19.2428L18.9356 19.3109C22.854 16.2244 23.5234 10.1483 23.5234 10.1483C23.2961 -0.979965 10.2799 0.613316 10.2799 0.613316C-4.26863 1.24444 1.05149 15.1581 1.05149 15.1581C5.17349 24.5723 17.0344 26.3513 17.0344 26.3513C19.8536 24.0516 19.5454 20.5938 19.5454 20.5938C5.60324 18.3848 6.74399 10.4906 6.74399 10.4906C6.48637 4.96725 11.0899 5.27044 11.0899 5.27044C17.3809 4.5135 17.157 9.87085 17.157 9.87085C17.4202 12.8048 14.1397 15.6984 12.2992 16.9906Z" fill="#2BAEDA" />
    <path d="M16.5157 40.1061C16.5067 40.0607 16.491 40.0215 16.4764 39.9844H16.4786C16.4786 39.9844 14.5954 31.9798 14.6809 26.9329L13.8326 26.639C11.3711 26.0429 7.56411 24.1207 7.56411 24.1207C7.56411 24.1207 1.43849 29.808 3.52536 42.8544C3.47249 42.9338 3.43086 43.0224 3.42861 43.1245C3.38249 44.2837 3.29924 48.1447 3.95624 49.0491C4.07436 49.2079 4.26111 49.2925 4.45461 49.2925C4.56936 49.2925 4.68299 49.2615 4.78649 49.1996C5.06549 49.0346 5.13636 48.6923 4.95524 48.4396C4.65599 48.0261 4.54686 45.3727 4.62336 43.1617C4.62336 43.1555 4.62111 43.1493 4.62111 43.1431H6.41661C6.41661 43.1617 6.40761 43.1751 6.40986 43.1967C6.49761 44.0155 6.97236 48.1529 7.62711 49.0491C7.74524 49.2079 7.93199 49.2925 8.12549 49.2925C8.24024 49.2925 8.35611 49.2636 8.45511 49.2038C8.73636 49.0326 8.80724 48.6923 8.62386 48.4396C8.29874 47.9951 7.85436 45.4098 7.60686 43.1431H11.5702C11.6872 44.1785 12.1462 48.0096 12.7729 48.8676C12.8842 49.0284 13.0777 49.1151 13.2712 49.1151C13.3837 49.1151 13.4996 49.0852 13.6009 49.0223C13.8754 48.8531 13.953 48.5128 13.7696 48.2612C13.4422 47.8105 12.9956 45.1881 12.7481 42.909C12.7414 42.842 12.7177 42.7791 12.684 42.7224V40.1442L15.3322 40.0329C15.3187 40.0927 15.3075 40.1566 15.3142 40.2195C15.4009 41.0373 15.8767 45.1705 16.5281 46.0688C16.644 46.2276 16.833 46.3142 17.0265 46.3142C17.1424 46.3142 17.2549 46.2864 17.3584 46.2193C17.6351 46.0512 17.7094 45.714 17.5226 45.4603C17.2076 45.0097 16.761 42.3851 16.5157 40.1061Z" fill="#2BAEDA" />
</svg>
    