<svg width="45" height="45" viewBox="0 0 45 45" fill="none" xmlns="http://www.w3.org/2000/svg">
    <path d="M22.3379 43.8651C28.0399 43.9622 34.077 43.2369 34.077 43.2369C34.077 25.9901 34.462 18.1852 34.462 18.1852L36.7737 20.6422L43.5198 14.9591L38.3163 7.10529C36.1481 4.26334 34.7026 3.73396 34.7026 3.73396L27.6677 0.842163C25.3079 2.52912 22.337 2.40451 22.337 2.40451H22.0784C22.0784 2.40451 19.1084 2.52912 16.7468 0.842163L9.71197 3.73396C9.71197 3.73396 8.2665 4.26419 6.09915 7.10529L0.894775 14.9591L7.64001 20.6422L9.95173 18.1852C9.95173 18.1852 10.3376 25.9909 10.3376 43.2369C10.3376 43.2369 16.3756 43.963 22.0775 43.8651H22.3379Z" stroke="#2BAEDA" stroke-width="1.5" stroke-miterlimit="10" stroke-linecap="round" stroke-linejoin="round" />
    <path d="M36.4342 4.98419C36.9653 5.48263 37.6012 6.16755 38.3162 7.10427L43.5198 14.9581L36.7737 20.6411L34.4619 18.1842C34.0769 8.88747 36.4342 4.98505 36.4342 4.98419Z" stroke="#2BAEDA" stroke-width="1.5" stroke-miterlimit="10" stroke-linecap="round" stroke-linejoin="round" />
    <path d="M7.98325 4.98419C7.45216 5.48263 6.81622 6.16755 6.10122 7.10427L0.897705 14.9581L7.64294 20.6411L9.95466 18.1842C10.3405 8.88747 7.98325 4.98505 7.98325 4.98419Z" stroke="#2BAEDA" stroke-width="1.5" stroke-miterlimit="10" stroke-linecap="round" stroke-linejoin="round" />
    <path d="M16.7485 0.841156C16.7485 0.841156 18.1605 5.22827 22.0801 5.13287H22.3379C26.2584 5.22827 27.6703 0.841156 27.6703 0.841156L30.9789 2.20069C30.7538 3.01537 28.9903 8.53858 22.3817 8.53686H22.0371C15.4268 8.53944 13.6642 3.00936 13.4417 2.19983V2.20069L16.7485 0.841156Z" stroke="#2BAEDA" stroke-width="1.5" stroke-miterlimit="10" stroke-linecap="round" stroke-linejoin="round" />
    <path d="M27.6703 0.841156C27.6703 0.841156 26.2575 5.22827 22.3379 5.13288H22.0801C18.1605 5.22827 16.7485 0.841156 16.7485 0.841156C19.1101 2.52811 22.0801 2.4035 22.0801 2.4035H22.3379C22.3379 2.4035 25.3105 2.52811 27.6703 0.841156Z" stroke="#2BAEDA" stroke-width="1.5" stroke-miterlimit="10" stroke-linecap="round" stroke-linejoin="round" />
</svg>
    